<svg width="63" height="55" viewBox="0 0 63 55" fill="none" xmlns="http://www.w3.org/2000/svg">
<path d="M38.7108 53C39.1108 52.6 40.5442 50.8333 41.2108 50L56.2108 31.5L59.2108 28.5C61.2108 26.9 61.0441 26.1667 60.7108 26C59.7108 25 60.2108 23 60.2108 22.5C62.2108 16.5 59.2108 17.5 58.7108 17.5C55.9108 18.3 55.8775 22.8333 56.2108 25L35.7108 49.5C28.5441 47.1667 14.0108 42.5 13.2108 42.5C8.21082 41.5 7.71082 36.5 7.71082 36C7.31082 32 10.2108 32 11.7108 32.5L33.2108 38.5C35.2108 39.5 36.2108 39 36.7108 38.5C37.0644 38.1464 56.7108 14.5 59.7108 12C62.7108 9.5 60.2108 7.5 59.2108 7C58.4108 6.6 53.8775 5.83333 51.7108 5.5C45.3775 4 32.5108 1 31.7108 1C30.7108 1 29.7108 1.5 29.2108 2C28.8108 2.4 24.7108 6.83333 22.7108 9C21.3775 10.3333 16.3108 15.8 6.71084 27C-2.88916 38.2 4.37751 44.3333 9.21084 46C16.7108 48.1667 32.3108 52.7 34.7108 53.5C37.7108 54.5 38.2108 53.5 38.7108 53Z" stroke="#D86F6F" stroke-width="2"/>
</svg>
