<?xml version="1.0" standalone="no"?>
<!DOCTYPE svg PUBLIC "-//W3C//DTD SVG 20010904//EN"
 "http://www.w3.org/TR/2001/REC-SVG-20010904/DTD/svg10.dtd">
<svg version="1.0" xmlns="http://www.w3.org/2000/svg"
 width="1080.000000pt" height="1080.000000pt" viewBox="0 0 1080.000000 1080.000000"
 preserveAspectRatio="xMidYMid meet">

<g transform="translate(0.000000,1080.000000) scale(0.100000,-0.100000)"
fill="#000000" stroke="none">
<path d="M4990 9879 c-1302 -106 -2478 -706 -3210 -1639 -435 -555 -711 -1145
-816 -1745 -32 -183 -44 -499 -25 -665 65 -571 340 -1006 780 -1233 259 -135
573 -201 836 -178 217 19 401 73 745 219 348 147 464 182 600 182 101 0 163
-16 275 -70 116 -56 168 -98 221 -177 101 -152 141 -342 209 -988 91 -863 259
-1301 642 -1666 340 -324 807 -545 1275 -605 183 -23 511 -16 688 16 737 131
1426 603 1909 1310 423 618 689 1398 773 2265 16 170 16 673 -1 840 -111 1116
-550 2065 -1306 2820 -784 782 -1762 1230 -2874 1315 -157 12 -568 11 -721 -1z
m745 -1364 c418 -106 570 -594 286 -917 -95 -108 -255 -178 -404 -178 -249 0
-453 148 -533 387 -47 139 -35 284 34 417 118 226 382 351 617 291z m1598
-440 c130 -34 260 -128 333 -242 52 -80 85 -191 86 -287 2 -159 -50 -284 -167
-402 -218 -219 -559 -219 -779 1 -134 134 -194 339 -151 510 19 75 74 188 115
237 41 49 138 124 194 148 111 50 259 64 369 35z m922 -1359 c68 -21 164 -81
225 -140 145 -141 199 -354 141 -553 -22 -77 -85 -174 -152 -238 -111 -104
-235 -155 -381 -155 -246 0 -472 174 -539 415 -20 73 -18 228 5 295 67 197
205 331 399 385 65 19 231 14 302 -9z m240 -1576 c187 -70 319 -224 360 -416
20 -93 19 -146 -5 -239 -92 -361 -489 -533 -812 -352 -252 141 -353 463 -227
721 71 146 205 257 362 301 78 22 245 14 322 -15z m-1170 -1115 c188 -49 350
-213 399 -401 76 -296 -114 -608 -415 -679 -221 -52 -457 43 -582 233 -116
176 -128 370 -35 562 60 124 211 247 349 284 72 19 211 20 284 1z"/>
</g>
</svg>
