<svg width="63" height="74" viewBox="0 0 63 74" fill="none" xmlns="http://www.w3.org/2000/svg">
<path fill-rule="evenodd" clip-rule="evenodd" d="M17.6182 12.2434C26.8543 11.2734 36.1457 11.2734 45.3819 12.2434L49.3649 12.6617C53.3348 13.0787 56.5425 16.6411 57.1191 21.2736C58.4171 31.7024 58.4171 42.2976 57.1191 52.7264C56.5425 57.3589 53.3348 60.9213 49.3649 61.3383L45.3819 61.7566C36.1457 62.7266 26.8543 62.7266 17.6182 61.7566L13.6352 61.3383C9.6652 60.9213 6.45758 57.3589 5.88099 52.7264C4.58294 42.2976 4.58294 31.7024 5.88099 21.2736C6.45758 16.6411 9.6652 13.0787 13.6352 12.6617L17.6182 12.2434ZM15.3709 21.0889C14.7608 20.703 14.0229 20.7223 13.428 21.1397C12.833 21.5571 12.4688 22.3111 12.4688 23.125V52.4167C12.4688 53.6938 13.3502 54.7292 14.4375 54.7292C15.5248 54.7292 16.4062 53.6938 16.4062 52.4167V26.9966L30.5666 35.9528C31.1493 36.3213 31.8507 36.3213 32.4334 35.9528L46.5938 26.9966V52.4167C46.5938 53.6938 47.4752 54.7292 48.5625 54.7292C49.6498 54.7292 50.5312 53.6938 50.5312 52.4167V23.125C50.5312 22.3111 50.167 21.5571 49.572 21.1397C48.9771 20.7223 48.2392 20.703 47.6291 21.0889L31.5 31.2902L15.3709 21.0889Z" fill="white"/>
</svg>
