<svg width="34" height="34" viewBox="0 0 34 34" fill="none" xmlns="http://www.w3.org/2000/svg">
<path fill-rule="evenodd" clip-rule="evenodd" d="M12.938 0.000144958C5.90803 0.0329436 0.196535 5.64575 0.00494332 12.6372H5.71679V10.7168C5.71679 7.9554 7.95537 5.71681 10.7168 5.71681H12.938V0.000144958ZM21.3628 5.71681V0.00496613C28.2542 0.193815 33.8062 5.74577 33.995 12.6372H28.2832V10.7168C28.2832 7.95539 26.0446 5.71681 23.2832 5.71681H21.3628ZM21.3628 28.2832H23.2832C26.0446 28.2832 28.2832 26.0446 28.2832 23.2832V21.0619H33.9998C33.967 28.0919 28.3542 33.8034 21.3628 33.995V28.2832ZM5.71679 21.0619V23.2832C5.71679 26.0446 7.95537 28.2832 10.7168 28.2832H12.938V33.9999C5.80746 33.9666 0.0333894 28.1925 0.00012207 21.0619H5.71679Z" fill="#C4C4C4"/>
</svg>
