<svg width="40" height="40" viewBox="0 0 40 40" fill="none" xmlns="http://www.w3.org/2000/svg">
<path fill-rule="evenodd" clip-rule="evenodd" d="M30.0885 2.47788C30.0885 1.10939 28.9791 0 27.6106 0C26.2421 0 25.1327 1.10939 25.1327 2.47788V8.86725C25.1327 12.181 27.819 14.8673 31.1327 14.8673H37.3451C38.8114 14.8673 40 13.6786 40 12.2124C40 10.7461 38.8114 9.55753 37.3451 9.55753H35.0885C32.3271 9.55753 30.0885 7.31895 30.0885 4.55753V2.47788ZM2.65487 14.8673C1.18862 14.8673 0 13.6786 0 12.2124C0 10.7461 1.18862 9.55752 2.65487 9.55752H5.26555C8.02697 9.55752 10.2655 7.31894 10.2655 4.55752V2.47784C10.2655 1.10937 11.3749 0 12.7434 0C14.1119 0 15.2212 1.10937 15.2212 2.47785V8.86725C15.2212 12.181 12.535 14.8673 9.22124 14.8673H2.65487ZM2.30088 24.7788C1.03014 24.7788 0 25.8089 0 27.0796C0 28.3504 1.03014 29.3805 2.30088 29.3805H5.2655C8.02693 29.3805 10.2655 31.6191 10.2655 34.3805V37.5221C10.2655 38.8906 11.3749 40 12.7434 40C14.1119 40 15.2212 38.8906 15.2212 37.5221V30.7788C15.2212 27.4651 12.535 24.7788 9.22124 24.7788H2.30088ZM40 27.0796C40 28.3504 38.9699 29.3805 37.6991 29.3805H35.0885C32.3271 29.3805 30.0885 31.6191 30.0885 34.3805V37.5221C30.0885 38.8906 28.9791 40 27.6106 40C26.2421 40 25.1327 38.8906 25.1327 37.5221V30.7788C25.1327 27.465 27.819 24.7788 31.1327 24.7788H37.6991C38.9699 24.7788 40 25.8089 40 27.0796Z" fill="#C4C4C4"/>
</svg>
